# xmcd CD database file
#
# Track frame offsets:
#	150
#	18715
#	35835
#	53967
#	70579
#	91019
#	107856
#	128139
#	160081
#	179645
#	197980
#	215706
#
# Disc length: 3091 seconds
#
# Revision: 2
# Processed by: cddbd v1.5.2PL0 Copyright (c) Steve Scherf et al.
# Submitted via: CDex 1.70beta2
#
DISCID=b10c110c
DTITLE=Oli Brown - Here I Am
DYEAR=2012
DGENRE=Blues
TTITLE0=Here I Am
TTITLE1=Thinking About Her
TTITLE2=Manic Bloom
TTITLE3=All We Had To Give
TTITLE4=You Can Only Blame Yourself
TTITLE5=Start It Again
TTITLE6=Devil In Me
TTITLE7=I Love You More Than You'll Ever Know
TTITLE8=Remedy
TTITLE9=Mr. Wilson
TTITLE10=Like A Feather (Feat. Dani Wilde)
TTITLE11=Solid Ground (Feat. Paul Jones)
EXTD=YEAR: 2012
EXTT0=
EXTT1=
EXTT2=
EXTT3=
EXTT4=
EXTT5=
EXTT6=
EXTT7=
EXTT8=
EXTT9=
EXTT10=
EXTT11=
PLAYORDER=
